<?xml version="1.0" encoding="utf-8"?>
<!DOCTYPE svg PUBLIC "-//W3C//DTD SVG 1.1//EN" "http://www.w3.org/Graphics/SVG/1.1/DTD/svg11.dtd">
<svg version="1.1" xmlns="http://www.w3.org/2000/svg" xmlns:xlink="http://www.w3.org/1999/xlink" x="0px" y="0px" viewBox="0 0 256 256" enable-background="new 0 0 256 256" xml:space="preserve">
<metadata> Svg Vector Icons : http://www.onlinewebfonts.com/icon </metadata>
<g><g><path  d="M175.1,136.6c11.6-12.2,19.5-28.5,19.5-46.5c0-37.7-30.5-68.2-68.2-68.2l0,0c-37.7,0-68.2,30.5-68.2,68.2c0,18.4,8.4,35.1,20.4,47.4c-31.7,14.2-56.2,41.6-66.4,75.2c-1.3,2.1-2.2,4.7-2.2,7.4c0,0.2,0,0.3,0,0.5c0,0,0,0.1,0,0.1h0c0.3,7.4,6.4,13.3,13.8,13.3c7.5,0,13.6-6,13.9-13.5c11.8-38.6,47.7-66.8,90.2-66.8c42.6,0,78.5,28.2,90.3,66.9h0.1c0.3,7.4,6.4,13.3,13.8,13.3c7.7,0,13.9-6.2,13.9-13.9c0-2.9-0.9-5.6-2.4-7.8C233,178.2,207.7,150.5,175.1,136.6z M127,133c-23.3,0-42.2-18.9-42.2-42.2c0-23.3,18.9-42.2,42.2-42.2c23.3,0,42.2,18.9,42.2,42.2C169.2,114.1,150.3,133,127,133z"/></g></g>
</svg>