<svg aria-hidden="true" style="position: absolute; width: 0; height: 0; overflow: hidden;" version="1.1" xmlns="http://www.w3.org/2000/svg" xmlns:xlink="http://www.w3.org/1999/xlink">
<defs>
<symbol id="icon-close" viewBox="0 0 32 32">
<path d="M7.501 6.727c-0.322 0.196-0.585 0.461-0.772 0.776l-0.006 0.010c-0.069 0.144-0.109 0.312-0.109 0.49 0 0.179 0.041 0.348 0.114 0.5l-0.003-0.007c0.075 0.149 1.313 1.427 3.745 3.864l3.635 3.64-3.635 3.64c-2.432 2.437-3.671 3.715-3.745 3.864-0.235 0.469-0.113 0.977 0.34 1.431s0.961 0.575 1.431 0.34c0.149-0.075 1.427-1.313 3.864-3.745l3.64-3.635 3.64 3.635c2.437 2.432 3.715 3.671 3.864 3.745 0.469 0.235 0.977 0.113 1.431-0.34s0.575-0.961 0.34-1.431c-0.075-0.149-1.313-1.427-3.745-3.864l-3.635-3.64 3.635-3.64c2.432-2.437 3.671-3.715 3.745-3.864 0.235-0.469 0.113-0.977-0.34-1.431s-0.961-0.575-1.431-0.34c-0.149 0.075-1.427 1.313-3.864 3.745l-3.64 3.635-3.64-3.635c-2.437-2.432-3.715-3.671-3.864-3.745-0.145-0.069-0.316-0.109-0.496-0.109-0.181 0-0.353 0.041-0.506 0.114l0.007-0.003z"></path>
</symbol>
<symbol id="icon-delete" viewBox="0 0 32 32">
<path d="M12.746 1.224c-0.508 0.075-0.966 0.232-1.382 0.457l0.022-0.011c-0.602 0.31-1.406 1.112-1.718 1.718-0.36 0.696-0.444 1.082-0.48 2.17l-0.030 0.944-2.806 0.018c-2.088 0.014-2.858 0.036-3.010 0.086-0.336 0.15-0.596 0.419-0.731 0.753l-0.003 0.009c-0.041 0.19-0.064 0.408-0.064 0.632s0.023 0.442 0.068 0.652l-0.004-0.020c0.136 0.342 0.397 0.611 0.725 0.753l0.009 0.003c0.112 0.034 0.57 0.076 1.016 0.090l0.812 0.028 0.032 17.88 0.122 0.4c0.228 0.742 0.51 1.198 1.1 1.792 0.454 0.456 0.61 0.574 1.026 0.782 0.942 0.47 0.362 0.44 8.55 0.44s7.608 0.030 8.55-0.44c0.416-0.208 0.572-0.326 1.026-0.782 0.602-0.604 0.896-1.090 1.106-1.83l0.118-0.414 0.014-8.914 0.016-8.914 0.812-0.028c0.446-0.014 0.904-0.056 1.016-0.090 0.337-0.146 0.598-0.414 0.731-0.747l0.003-0.009c0.036-0.128 0.066-0.412 0.066-0.632s-0.030-0.504-0.066-0.632c-0.138-0.343-0.398-0.612-0.725-0.758l-0.009-0.004c-0.152-0.050-0.922-0.072-3.010-0.086l-2.806-0.018-0.030-0.918c-0.052-1.564-0.316-2.24-1.236-3.16-0.592-0.592-1.054-0.874-1.79-1.098-0.394-0.118-0.448-0.12-3.572-0.13-0.317-0.004-0.691-0.007-1.066-0.007-0.845 0-1.686 0.013-2.525 0.038l0.123-0.003zM19.292 4.334c0.126 0.080 0.294 0.248 0.374 0.374 0.14 0.216 0.148 0.26 0.166 1.012l0.018 0.786h-7.7l0.018-0.786c0.018-0.752 0.026-0.796 0.166-1.012 0.158-0.222 0.37-0.396 0.616-0.506l0.010-0.004c0.044-0.018 1.436-0.026 3.094-0.022l3.012 0.010 0.226 0.148zM23.828 18.28l-0.014 8.786-0.148 0.226c-0.102 0.148-0.226 0.272-0.369 0.371l-0.005 0.003-0.226 0.148h-14.132l-0.226-0.148c-0.148-0.102-0.272-0.226-0.371-0.369l-0.003-0.005-0.148-0.226-0.028-17.572h15.684l-0.014 8.786zM12.846 13.244c-0.329 0.068-0.605 0.26-0.781 0.524l-0.003 0.004c-0.214 0.348-0.228 0.672-0.21 5.108 0.020 4.718 0.002 4.496 0.39 4.884 0.348 0.35 1.070 0.474 1.702 0.292 0.364-0.125 0.648-0.4 0.783-0.749l0.003-0.009c0.056-0.182 0.070-1.152 0.070-4.632 0-3.478-0.014-4.448-0.070-4.63-0.090-0.296-0.462-0.674-0.738-0.752-0.199-0.053-0.428-0.084-0.665-0.084-0.17 0-0.337 0.016-0.498 0.046l0.017-0.003zM18.186 13.244c-0.368 0.086-0.478 0.146-0.684 0.38-0.308 0.352-0.302 0.254-0.302 5.042 0 3.48 0.014 4.45 0.070 4.632 0.098 0.322 0.448 0.66 0.786 0.758 0.634 0.182 1.354 0.058 1.706-0.294 0.384-0.384 0.372-0.216 0.372-5.096 0-4.89 0.012-4.708-0.378-5.1-0.33-0.33-0.97-0.46-1.57-0.322z"></path>
</symbol>
<symbol id="icon-edit" viewBox="0 0 32 32">
<path d="M24.32 1.704c-0.836 0.206-1.376 0.454-1.974 0.906-0.19 0.146-3.96 3.882-8.378 8.306-6.192 6.202-8.088 8.13-8.278 8.422-0.33 0.506-0.38 0.626-2.136 5.204-1.612 4.204-1.626 4.246-1.454 4.646 0.092 0.212 0.542 0.652 0.744 0.728 0.117 0.033 0.252 0.052 0.391 0.052 0.159 0 0.312-0.025 0.456-0.071l-0.011 0.003c1.434-0.534 8.126-3.132 8.41-3.266 0.21-0.1 0.57-0.324 0.8-0.496 0.576-0.432 16.356-16.24 16.642-16.672 0.394-0.592 0.624-1.148 0.79-1.91 0.122-0.558 0.086-1.592-0.076-2.196-0.14-0.526-0.458-1.2-0.772-1.642-0.371-0.478-0.79-0.892-1.257-1.246l-0.017-0.012c-0.449-0.289-0.966-0.53-1.517-0.695l-0.043-0.011c-0.608-0.164-1.762-0.188-2.32-0.050zM26.47 4.416c0.552 0.272 0.876 0.604 1.146 1.172 0.194 0.404 0.198 0.424 0.198 1.052 0 0.634-0.002 0.644-0.206 1.066-0.206 0.426-0.222 0.442-7.906 8.134l-7.702 7.706-1.774-1.772-1.772-1.774 7.706-7.702c7.588-7.582 7.712-7.702 8.106-7.888 0.502-0.236 0.548-0.244 1.214-0.228 0.52 0.014 0.568 0.024 0.99 0.234zM9.666 24.856c-0.084 0.070-4.020 1.554-4.048 1.526-0.016-0.016 0.296-0.878 0.692-1.912l0.784-2.040 0.058-0.158 1.276 1.276c0.702 0.702 1.258 1.29 1.238 1.308z"></path>
</symbol>
<symbol id="icon-menu" viewBox="0 0 32 32">
<path stroke-linejoin="round" stroke-linecap="round" stroke-miterlimit="4" stroke-width="2.6667" d="M4 16h24M4 8h24M4 24h24"></path>
</symbol>
</defs>
</svg>
